<svg width="1923" height="1188" viewBox="0 0 1923 1188" fill="none" xmlns="http://www.w3.org/2000/svg">
<rect width="1920" height="1188" fill="url(#paint0_linear_24_1)"/>
<path opacity="0.6" d="M701.259 72.8645C718.124 53.9863 743.422 44.0503 777.152 42.0631C838.589 38.0888 873.524 61.935 881.957 113.602C919.301 321.262 960.259 497.127 1003.63 641.198L1267.45 226.871C1291.54 189.114 1321.65 169.243 1357.79 167.255C1410.8 164.275 1443.32 192.095 1456.58 250.717C1486.69 382.864 1525.24 495.14 1571.02 590.524C1602.34 338.153 1655.34 156.326 1730.03 44.0504C1748.1 16.2299 1774.6 2.31975 1809.54 0.332572C1837.25 -1.65461 1862.54 5.30052 1885.43 20.2044C1908.32 35.1082 1920.37 53.9862 1922.78 76.8388C1923.98 94.7234 1920.37 109.627 1910.73 124.531C1863.75 196.07 1825.2 316.294 1793.88 483.217C1763.76 645.172 1752.92 771.358 1760.15 861.774C1762.56 886.614 1757.74 908.473 1745.69 927.351C1731.24 949.21 1709.55 961.133 1681.85 963.12C1650.53 965.108 1618 953.184 1586.68 926.357C1474.65 831.967 1385.5 690.877 1320.45 503.089C1242.15 630.268 1184.32 725.653 1146.98 789.242C1075.91 901.518 1015.67 959.146 965.078 962.127C932.552 964.114 904.845 941.261 880.752 893.569C819.315 763.409 753.059 512.031 681.985 139.435C678.371 113.602 684.394 90.7491 701.259 72.8645Z" fill="white"/>
<defs>
<linearGradient id="paint0_linear_24_1" x1="960" y1="0" x2="960" y2="1188" gradientUnits="userSpaceOnUse">
<stop stop-color="#E5EFFF"/>
<stop offset="0.836972" stop-color="#E5EFFF" stop-opacity="0.262661"/>
<stop offset="1" stop-color="#E5EFFF" stop-opacity="0"/>
</linearGradient>
</defs>
</svg>
