<?xml version="1.0" standalone="no"?>
<!DOCTYPE svg PUBLIC "-//W3C//DTD SVG 20010904//EN"
 "http://www.w3.org/TR/2001/REC-SVG-20010904/DTD/svg10.dtd">
<svg version="1.0" xmlns="http://www.w3.org/2000/svg"
 width="1280.000000pt" height="960.000000pt" viewBox="0 0 1280.000000 960.000000"
 preserveAspectRatio="xMidYMid meet">

<g transform="translate(0.000000,960.000000) scale(0.100000,-0.100000)"
fill="#000000" stroke="none">
<path d="M3077 6014 c-63 -15 -168 -64 -207 -96 -27 -22 -32 -23 67 13 84 31
186 42 256 30 143 -25 242 -105 311 -252 54 -115 69 -210 64 -408 -5 -150 -9
-179 -41 -301 -123 -468 -355 -826 -695 -1075 l-82 -60 41 -18 41 -18 55 33
c249 150 535 512 685 868 163 387 199 782 97 1055 -26 69 -84 121 -195 176
-133 66 -269 84 -397 53z"/>
<path d="M2840 5849 c-36 -11 -79 -24 -97 -28 -92 -24 -311 -249 -451 -463
-139 -214 -261 -525 -296 -755 l-6 -43 35 0 c40 0 49 13 59 84 14 93 79 313
128 429 70 165 204 390 316 527 69 86 172 189 172 174 0 -7 23 -6 68 4 133 28
272 -12 366 -105 53 -53 115 -172 137 -263 23 -93 18 -335 -9 -458 -57 -256
-161 -476 -327 -692 -66 -86 -212 -221 -298 -275 l-79 -50 29 -12 c48 -21 72
-15 146 35 232 155 465 463 588 781 78 199 123 495 101 661 -28 208 -115 356
-253 430 -58 31 -72 34 -164 37 -79 2 -113 -1 -165 -18z"/>
<path d="M2636 5677 c-14 -15 -26 -30 -26 -35 0 -5 27 -12 59 -15 169 -18 296
-144 347 -347 22 -84 22 -256 1 -375 -21 -118 -67 -253 -128 -378 -27 -55 -49
-108 -49 -117 0 -14 -10 -47 -55 -175 -11 -31 48 38 114 135 109 159 184 333
232 535 31 129 34 343 6 445 -41 153 -121 261 -234 316 -47 23 -74 29 -149 32
-89 4 -94 3 -118 -21z"/>
<path d="M2399 5587 c-216 -179 -397 -457 -488 -754 -26 -81 -61 -237 -61
-265 0 -5 15 -8 33 -8 l34 0 17 98 c9 54 36 156 60 228 87 259 222 484 405
676 40 43 72 78 69 78 -2 0 -33 -24 -69 -53z"/>
<path d="M2522 5493 c-166 -246 -318 -623 -357 -885 l-7 -48 45 0 46 0 11 58
c22 114 61 254 101 365 22 61 51 159 65 217 15 58 32 111 38 117 13 14 53 -9
139 -80 53 -44 59 -38 20 20 -43 62 -65 87 -100 111 -18 13 -33 29 -33 36 0
14 29 76 36 76 2 0 26 -10 52 -22 67 -32 128 -98 168 -181 40 -85 54 -151 54
-256 0 -47 8 -100 20 -138 10 -34 22 -85 26 -113 4 -29 11 -47 15 -43 5 5 19
52 30 104 28 125 30 307 5 399 -40 145 -130 261 -233 300 -85 32 -97 28 -141
-37z"/>
<path d="M3890 5438 c0 -29 -7 -93 -15 -143 -94 -571 -432 -1151 -838 -1438
-77 -55 -85 -63 -70 -74 9 -7 32 -16 50 -19 28 -5 43 0 91 31 346 229 673 696
850 1215 63 185 63 228 2 369 -53 122 -70 137 -70 59z"/>
<path d="M2163 5419 c-211 -198 -365 -473 -418 -750 -19 -100 -19 -105 0 -113
30 -11 41 5 52 77 45 277 194 577 393 786 28 30 48 56 46 58 -3 3 -35 -24 -73
-58z"/>
<path d="M5886 5219 c-43 -34 -56 -70 -56 -159 0 -71 -2 -81 -17 -79 -45 4
-53 -1 -53 -31 0 -28 3 -30 35 -30 l35 0 0 -209 c0 -137 4 -212 11 -216 5 -4
21 -4 35 -1 l24 6 0 210 0 209 73 3 c70 3 72 4 75 30 3 27 3 27 -70 30 l-73 3
-3 79 c-2 63 1 82 14 97 19 21 46 24 73 9 14 -7 23 -4 40 14 l22 24 -22 16
c-34 23 -110 21 -143 -5z"/>
<path d="M4754 5166 c-123 -57 -162 -198 -76 -278 40 -38 82 -56 184 -79 149
-34 198 -68 198 -136 0 -43 -47 -96 -98 -111 -93 -28 -188 -9 -249 50 -29 28
-35 30 -59 19 -26 -11 -26 -12 -9 -39 37 -58 113 -99 203 -108 157 -17 299 95
276 217 -16 84 -92 134 -260 174 -60 14 -116 31 -125 38 -25 19 -39 52 -39 93
0 64 88 124 183 124 50 0 128 -31 159 -64 28 -30 35 -33 60 -24 26 9 27 11 13
37 -50 98 -240 143 -361 87z"/>
<path d="M6197 5133 c-4 -3 -7 -39 -7 -79 l0 -73 -42 -3 c-38 -3 -43 -6 -43
-28 0 -22 5 -25 43 -28 l42 -3 2 -212 3 -212 30 0 30 0 3 213 2 212 60 0 c60
0 60 0 60 30 0 17 -5 30 -12 31 -71 5 -94 6 -100 8 -5 0 -8 35 -8 76 l0 75
-28 0 c-16 0 -32 -3 -35 -7z"/>
<path d="M5400 4991 c-112 -34 -184 -133 -183 -251 1 -76 20 -125 68 -179 117
-130 320 -94 394 69 43 95 18 234 -55 302 -60 56 -153 80 -224 59z m147 -81
c18 -10 45 -38 60 -61 24 -36 28 -53 28 -109 0 -56 -4 -73 -28 -108 -33 -51
-64 -72 -116 -79 -88 -12 -157 24 -192 102 -43 93 -10 203 76 256 41 26 129
25 172 -1z"/>
<path d="M6595 4976 c-89 -41 -155 -142 -155 -236 0 -94 66 -195 155 -236 83
-39 153 -31 219 27 24 21 45 36 48 34 2 -2 3 -35 1 -71 -4 -86 -27 -124 -95
-158 -58 -29 -75 -31 -133 -15 -42 12 -115 78 -115 104 0 18 -2 18 -35 3 -29
-13 -30 -19 -10 -57 34 -67 129 -121 210 -121 98 0 178 49 220 134 l25 52 -2
273 c-3 244 -5 274 -19 276 -27 4 -42 -12 -42 -44 0 -38 -7 -39 -38 -5 -58 64
-150 80 -234 40z m177 -62 c73 -38 109 -165 74 -258 -58 -151 -257 -147 -321
6 -68 165 94 331 247 252z"/>
<path d="M7225 4993 c-11 -3 -37 -18 -57 -34 -45 -35 -48 -36 -48 -4 0 22 -4
25 -35 25 l-35 0 2 -242 3 -243 30 0 30 0 5 170 c4 142 8 176 23 198 26 40 76
67 123 67 34 0 43 4 53 26 6 14 9 30 6 35 -6 9 -64 10 -100 2z"/>
<path d="M7541 4983 c-142 -50 -206 -250 -122 -381 63 -99 173 -144 272 -111
180 61 238 295 106 428 -75 76 -161 97 -256 64z m158 -67 c132 -69 136 -268 7
-347 -74 -45 -186 -12 -234 70 -57 97 -14 241 83 282 33 13 114 10 144 -5z"/>
<path d="M8653 4989 c-18 -5 -51 -28 -72 -51 l-40 -41 -3 44 c-2 36 -7 44 -23
44 -45 1 -45 1 -45 -361 1 -190 3 -351 6 -359 4 -9 19 -15 35 -15 l29 0 0 166
0 165 34 -35 c157 -167 450 14 397 246 -16 73 -69 141 -132 174 -57 29 -137
39 -186 23z m165 -83 c50 -26 92 -99 92 -158 0 -106 -56 -175 -160 -199 -70
-16 -158 30 -186 98 -17 39 -18 128 -3 174 35 104 149 142 257 85z"/>
<path d="M7963 4982 c-23 -3 -23 -6 -23 -153 0 -83 5 -170 11 -193 21 -84 110
-156 192 -156 39 0 118 32 138 56 18 22 29 16 29 -16 0 -27 3 -30 30 -30 l30
0 0 243 c0 134 -2 246 -5 249 -3 3 -16 3 -29 1 -24 -5 -24 -5 -28 -167 -3
-131 -6 -167 -21 -194 -52 -96 -198 -96 -257 0 -18 29 -20 51 -20 194 0 171
-1 174 -47 166z"/>
<path d="M4056 4862 c-32 -81 -181 -365 -242 -463 -161 -255 -388 -502 -602
-656 -49 -35 -48 -37 31 -63 l38 -12 96 73 c249 186 505 497 689 833 l37 68
-7 126 c-4 70 -10 130 -14 134 -4 4 -16 -14 -26 -40z"/>
<path d="M4031 4264 c-159 -224 -375 -458 -533 -573 -48 -36 -85 -68 -82 -72
2 -5 28 -16 58 -25 45 -14 56 -15 78 -3 53 28 233 186 333 292 113 120 118
129 165 316 28 110 23 125 -19 65z"/>
</g>
</svg>
